<svg width="100%" viewBox="0 0 680 620" xmlns="http://www.w3.org/2000/svg" style="font-family: Arial, sans-serif; background: #0d1117;">

  <defs>
    <marker id="arrow" viewBox="0 0 10 10" refX="8" refY="5" markerWidth="6" markerHeight="6" orient="auto-start-reverse">
      <path d="M2 1L8 5L2 9" fill="none" stroke="#58a6ff" stroke-width="1.5" stroke-linecap="round" stroke-linejoin="round"/>
    </marker>
  </defs>

  <!-- Azure Subscription container -->
  <rect x="30" y="20" width="620" height="570" rx="16" fill="#0078D410" stroke="#0078D4" stroke-width="1"/>
  <text x="50" y="48" font-size="14" font-weight="600" fill="#58a6ff">Azure subscription</text>
  <text x="50" y="64" font-size="12" fill="#8b949e">Central India · Free trial</text>

  <!-- Resource Group container -->
  <rect x="50" y="78" width="580" height="490" rx="12" fill="#1D9E7510" stroke="#1D9E75" stroke-width="0.8"/>
  <text x="70" y="102" font-size="14" font-weight="600" fill="#3fb950">Resource group: sentinal-rg</text>

  <!-- Log Analytics Workspace -->
  <rect x="220" y="118" width="240" height="52" rx="8" fill="#0078D420" stroke="#0078D4" stroke-width="1"/>
  <text x="340" y="140" font-size="14" font-weight="600" fill="#79c0ff" text-anchor="middle">Log Analytics workspace</text>
  <text x="340" y="158" font-size="12" fill="#8b949e" text-anchor="middle">sentinal-workspace</text>

  <!-- Arrow -->
  <line x1="340" y1="170" x2="340" y2="200" stroke="#58a6ff" stroke-width="1.5" marker-end="url(#arrow)"/>

  <!-- Microsoft Sentinel -->
  <rect x="190" y="202" width="300" height="52" rx="8" fill="#7F77DD20" stroke="#7F77DD" stroke-width="1"/>
  <text x="340" y="224" font-size="14" font-weight="600" fill="#d2a8ff" text-anchor="middle">Microsoft Sentinel</text>
  <text x="340" y="242" font-size="12" fill="#8b949e" text-anchor="middle">SIEM · Threat detection · SOAR</text>

  <!-- Arrow -->
  <line x1="340" y1="254" x2="340" y2="284" stroke="#58a6ff" stroke-width="1.5" marker-end="url(#arrow)"/>

  <!-- Data Connectors label -->
  <text x="340" y="304" font-size="14" font-weight="600" fill="#c9d1d9" text-anchor="middle">Data connectors (8)</text>

  <!-- Row 1 connectors -->
  <rect x="68" y="316" width="148" height="44" rx="6" fill="#0F6E5620" stroke="#1D9E75" stroke-width="0.8"/>
  <text x="142" y="334" font-size="13" font-weight="600" fill="#3fb950" text-anchor="middle">MDE</text>
  <text x="142" y="350" font-size="11" fill="#8b949e" text-anchor="middle">Defender for Endpoint</text>

  <rect x="228" y="316" width="148" height="44" rx="6" fill="#0F6E5620" stroke="#1D9E75" stroke-width="0.8"/>
  <text x="302" y="334" font-size="13" font-weight="600" fill="#3fb950" text-anchor="middle">MDI</text>
  <text x="302" y="350" font-size="11" fill="#8b949e" text-anchor="middle">Defender for Identity</text>

  <rect x="388" y="316" width="148" height="44" rx="6" fill="#0F6E5620" stroke="#1D9E75" stroke-width="0.8"/>
  <text x="462" y="334" font-size="13" font-weight="600" fill="#3fb950" text-anchor="middle">Azure Activity</text>
  <text x="462" y="350" font-size="11" fill="#8b949e" text-anchor="middle">Manually configured</text>

  <!-- Row 2 connectors -->
  <rect x="68" y="372" width="148" height="44" rx="6" fill="#0F6E5620" stroke="#1D9E75" stroke-width="0.8"/>
  <text x="142" y="390" font-size="13" font-weight="600" fill="#3fb950" text-anchor="middle">Cisco Umbrella</text>
  <text x="142" y="406" font-size="11" fill="#8b949e" text-anchor="middle">DNS · Proxy logs</text>

  <rect x="228" y="372" width="148" height="44" rx="6" fill="#0F6E5620" stroke="#1D9E75" stroke-width="0.8"/>
  <text x="302" y="390" font-size="13" font-weight="600" fill="#3fb950" text-anchor="middle">MDCA</text>
  <text x="302" y="406" font-size="11" fill="#8b949e" text-anchor="middle">Cloud Apps</text>

  <rect x="388" y="372" width="148" height="44" rx="6" fill="#0F6E5620" stroke="#1D9E75" stroke-width="0.8"/>
  <text x="462" y="390" font-size="13" font-weight="600" fill="#3fb950" text-anchor="middle">+3 more</text>
  <text x="462" y="406" font-size="11" fill="#8b949e" text-anchor="middle">Training Lab provisioned</text>

  <!-- Arrow -->
  <line x1="340" y1="416" x2="340" y2="444" stroke="#58a6ff" stroke-width="1.5" marker-end="url(#arrow)"/>

  <!-- Training Lab Solution -->
  <rect x="160" y="444" width="360" height="48" rx="8" fill="#BA751720" stroke="#EF9F27" stroke-width="1"/>
  <text x="340" y="464" font-size="14" font-weight="600" fill="#e3b341" text-anchor="middle">Sentinel Training Lab Solution</text>
  <text x="340" y="482" font-size="12" fill="#8b949e" text-anchor="middle">Attack simulation · ~20MB pre-recorded data</text>

  <!-- Arrows to outputs -->
  <line x1="240" y1="492" x2="178" y2="522" stroke="#58a6ff" stroke-width="1.5" marker-end="url(#arrow)"/>
  <line x1="440" y1="492" x2="502" y2="522" stroke="#58a6ff" stroke-width="1.5" marker-end="url(#arrow)"/>

  <!-- Incidents -->
  <rect x="66" y="522" width="224" height="52" rx="8" fill="#99391D20" stroke="#D85A30" stroke-width="1"/>
  <text x="178" y="542" font-size="14" font-weight="600" fill="#ffa657" text-anchor="middle">Incidents generated</text>
  <text x="178" y="560" font-size="12" fill="#8b949e" text-anchor="middle">1 High · 2 Medium severity</text>

  <!-- KQL Queries -->
  <rect x="392" y="522" width="224" height="52" rx="8" fill="#3B6D1120" stroke="#639922" stroke-width="1"/>
  <text x="504" y="542" font-size="14" font-weight="600" fill="#7ee787" text-anchor="middle">KQL detection queries</text>
  <text x="504" y="560" font-size="12" fill="#8b949e" text-anchor="middle">Brute force · LOLBins · C2 · Travel</text>

</svg>
